# xmcd
#
# Track frame offsets:
#	150
#	14714
#	28307
#	41610
#	53917
#	67251
#	81251
#	94563
#	108144
#	122577
#	135900
#	148831
#	161636
#	176136
#	189433
#	200140
#	212974
#	227497
#	239963
#
# Disc length: 3378 seconds
# Revision: 0
# Processed by: cddbd v1.5.2PL0 Copyright (c) Steve Scherf et al.
# Submitted via: dBpowerAMP V12.0
#
DISCID=1f0d3013
DTITLE=John Lee Hooker - John Lee Hooker Sings The Blues/Bonus Tracks
DYEAR=1961
DGENRE=Blues
TTITLE0=Wandering Blues
TTITLE1=I'm Gonna Kill That Woman
TTITLE2=Heart Trouble Blues
TTITLE3=Don't You Remember Me
TTITLE4=Slim's Stomp
TTITLE5=The Numbers
TTITLE6=Nightmare Blues
TTITLE7=Moanin' Blues
TTITLE8=Don't Go Baby
TTITLE9=Late Last Night
TTITLE10=Devil's Jump
TTITLE11=Poor Slim
TTITLE12=Sally Mae
TTITLE13=Hoogie Boogie
TTITLE14=See See Baby
TTITLE15=Weeping Willow Boogie
TTITLE16=Whistlin' And Moanin'
TTITLE17=War Is Over
TTITLE18=Drifting From Door To Door
EXTD=
EXTT0=
EXTT1=
EXTT2=
EXTT3=
EXTT4=
EXTT5=
EXTT6=
EXTT7=
EXTT8=
EXTT9=
EXTT10=
EXTT11=
EXTT12=
EXTT13=
EXTT14=
EXTT15=
EXTT16=
EXTT17=
EXTT18=
PLAYORDER=
